# xmcd
#
# Track frame offsets: 
#        150
#        11976
#        24616
#        38992
#        52876
#        67012
#        81299
#        93730
#        108202
#        121529
#        136032
#        151739
#        166637
#        180463
#        193885
#        208391
#        221429
#        233497
#        245505
#        260075
#        274947
#        287643
#        301498
#        314486
#        327141
#        341810
#
# Disc length: 4735 seconds
#
# Revision: 0
# Processed by: cddbd v1.5.1PL0 Copyright (c) Steve Scherf et al.
# Submitted via: ExactAudioCopy v0.95a5
#
DISCID=77127d1a
DTITLE=Various Artist - Roll 'Em Pete - 25 years of Piano Blues and Boogie 1928
DTITLE=1953 CD1
DYEAR=2004
DGENRE=Blues
TTITLE0=The Mississippi Jook Band - Hittin' the Bottle Stomp
TTITLE1=Walter Davis - Sweet Sixteen
TTITLE2=Hattie Hudson -  Doggone My Good Luck Soul
TTITLE3=Jim Clarke - Fat Fanny Stomp
TTITLE4=Texas Bill Day - Elm Street Blues
TTITLE5=Cow Cow Davenport - Cow Cow Blues
TTITLE6=Mozelle Alderson with Judson Brown - Tight Whoopee
TTITLE7=Joe Dean - I'm so glad I'm 21 years old today
TTITLE8=Little Brother Montgomery - Vicksburg blues
TTITLE9=Whistlin' Alex Moore - Blue Bloomer Blues
TTITLE10=Henry Brown - Stomp 'Em down to the Bricks
TTITLE11=Ida Mae Mack with K.D. Johnson - When you lose your daddy
TTITLE12=Roosevelt Sykes - Nasty but it's clean
TTITLE13=Blind Leroy Garnett - Chain ' Em Down
TTITLE14=Maede Lux Lewis - Honky Tonk Train blues
TTITLE15=Skip James - If You Haven't Any Hay
TTITLE16=Bob Call - 31 Blues
TTITLE17=Bessie Tucker with K.D. Johnson - Better Boot That Thing
TTITLE18=Wesley Wallace - No.29
TTITLE19=St. Louis Jimmy - Pipe Layin' blues
TTITLE20=Herve Duerson - Avenue Strut
TTITLE21=Raymond Barrow - Walking blues
TTITLE22=Pinetop Smith - Pinetop's blues
TTITLE23=Speckled Red - Wilkins Street Stomp
TTITLE24=Jabo Williams - Fat Mama Blues
TTITLE25=Arnold Wiley - Arnold Wiley Rag
EXTD=
EXTT0=
EXTT1=
EXTT2=
EXTT3=
EXTT4=
EXTT5=
EXTT6=
EXTT7=
EXTT8=
EXTT9=
EXTT10=
EXTT11=
EXTT12=
EXTT13=
EXTT14=
EXTT15=
EXTT16=
EXTT17=
EXTT18=
EXTT19=
EXTT20=
EXTT21=
EXTT22=
EXTT23=
EXTT24=
EXTT25=
PLAYORDER=
